<?xml version="1.0" encoding="utf-8"?>
<!-- Generator: Adobe Illustrator 26.1.0, SVG Export Plug-In . SVG Version: 6.00 Build 0)  -->
<svg version="1.1" id="Capa_1" xmlns="http://www.w3.org/2000/svg" xmlns:xlink="http://www.w3.org/1999/xlink" x="0px" y="0px"
	 viewBox="0 0 972.33 330.27" style="enable-background:new 0 0 972.33 330.27;" xml:space="preserve">
<style type="text/css">
	.st0{fill:#004F83;}
	.st1{fill:#00B3BA;}
	.st2{fill:#00C8EF;}
</style>
<g>
	<g>
		<circle class="st0" cx="278.29" cy="101.9" r="76.72"/>
		<g>
			<path class="st1" d="M519.86,59.2c-41.16-12.75-85.23,9.35-99.17,50.13c-33.46,97.91-126.27,168.32-235.52,168.32
				c-15.23,0-30.14-1.37-44.61-3.99c43.31,20.17,91.61,31.44,142.54,31.44c111.87,0,211.04-54.35,272.56-138.09
				C583.99,128.43,565.59,73.37,519.86,59.2L519.86,59.2z"/>
		</g>
		<g>
			<path class="st2" d="M55.5,146.41l-0.15,0.13c-27.47,24.28-22.82,68.37,9.08,86.43c33.9,19.19,73.07,30.14,114.8,30.14
				c62.21,0,118.73-24.34,160.56-64.01c-22.34,9.91-47.07,15.43-73.09,15.43c-54.71,0-103.73-24.36-136.81-62.83
				C110.84,129.52,77.42,127.04,55.5,146.41z"/>
		</g>
		<g>
			<g>
				<g>
					<path class="st0" d="M651.85,101.22h-21.34v-24.8h21.34c6.84,0,12.4,5.56,12.4,12.4C664.25,95.66,658.69,101.22,651.85,101.22z
						 M633.48,98.26h18.37c5.2,0,9.44-4.23,9.44-9.44s-4.23-9.44-9.44-9.44h-18.37V98.26z"/>
				</g>
				<g>
					<path class="st0" d="M649.37,139.44h-18.85V98.26h18.85c11.35,0,20.59,9.24,20.59,20.59S660.72,139.44,649.37,139.44z
						 M633.48,136.47h15.89c9.72,0,17.62-7.91,17.62-17.62s-7.91-17.62-17.62-17.62h-15.89V136.47z"/>
				</g>
				<g>
					<rect x="676.42" y="99.74" class="st0" width="2.97" height="39.46"/>
				</g>
				<g>
					<path class="st0" d="M728.16,129.35c-0.23,0.62-0.91,1.65-0.91,1.65c-4.09,6.06-10.9,9.68-18.2,9.68
						c-12.11,0-21.96-9.85-21.96-21.96c0-12.11,9.85-21.96,21.96-21.96c11.31,0,20.7,8.47,21.84,19.71l0.17,1.63h-40.99
						c-0.01,0.2-0.01,0.41-0.01,0.61c0,10.47,8.52,18.99,18.99,18.99c6.32,0,12.21-3.13,15.75-8.37
						C724.8,129.34,727.37,129.35,728.16,129.35z M690.4,115.15h37.31c-1.68-8.89-9.43-15.41-18.65-15.41
						C699.8,99.73,692.07,106.38,690.4,115.15z"/>
				</g>
				<g>
					<path class="st0" d="M813.03,129.35c-0.23,0.62-0.91,1.65-0.91,1.65c-4.09,6.06-10.9,9.68-18.2,9.68
						c-12.11,0-21.96-9.85-21.96-21.96c0-12.11,9.85-21.96,21.96-21.96c11.31,0,20.7,8.47,21.84,19.71l0.17,1.63h-40.99
						c-0.01,0.2-0.01,0.41-0.01,0.61c0,10.47,8.52,18.99,18.99,18.99c6.32,0,12.21-3.13,15.75-8.37
						C809.66,129.34,812.24,129.35,813.03,129.35z M775.26,115.15h37.31c-1.68-8.89-9.43-15.41-18.65-15.41
						C784.67,99.73,776.94,106.38,775.26,115.15z"/>
				</g>
				<g>
					<path class="st0" d="M766.24,139.2h-2.97v-25.5c0-6.88-5.6-12.48-12.48-12.48c-6.88,0-12.48,5.6-12.48,12.48v25.5h-2.97v-25.5
						c0-8.51,6.93-15.44,15.44-15.44c8.51,0,15.44,6.93,15.44,15.44V139.2z"/>
				</g>
				<g>
					<rect x="735.36" y="99.74" class="st0" width="2.97" height="39.46"/>
				</g>
				<g>
					<rect x="853.96" y="87.39" class="st0" width="2.97" height="51.8"/>
				</g>
				<g>
					<rect x="846.23" y="98.26" class="st0" width="18.42" height="2.97"/>
				</g>
				<g>
					<rect x="908.82" y="100.79" class="st0" width="2.97" height="38.4"/>
				</g>
				<g>
					<rect x="920.6" y="100.79" class="st0" width="2.97" height="38.4"/>
				</g>
				<g>
					<path class="st0" d="M890.66,139.79c-11.64,0-21.12-9.47-21.12-21.12s9.47-21.12,21.12-21.12c11.64,0,21.12,9.47,21.12,21.12
						S902.31,139.79,890.66,139.79z M890.66,100.52c-10.01,0-18.15,8.14-18.15,18.15s8.14,18.15,18.15,18.15
						c10.01,0,18.15-8.14,18.15-18.15S900.67,100.52,890.66,100.52z"/>
				</g>
				<g>
					<path class="st0" d="M923.26,112.68l-2.35-1.81c0.02-0.03,2.15-2.78,4.73-5.98c2.96-3.67,8.71-4.24,8.96-4.27l0.27,2.95
						l-0.14-1.48l0.14,1.48c-0.05,0-4.76,0.49-6.93,3.18C925.39,109.93,923.28,112.65,923.26,112.68z"/>
				</g>
				<g>
					<path class="st0" d="M830.18,139.79c-6.41,0-11.63-5.22-11.63-11.63h2.97c0,4.78,3.88,8.66,8.66,8.66
						c4.78,0,8.66-3.88,8.66-8.66c0-4.43-2.76-7.53-8.96-10.05c-4.88-1.98-6.82-4.9-7.59-7c-0.73-2.01-0.57-3.65-0.49-4.2
						c0.07-4.7,3.92-8.5,8.63-8.5c4.76,0,8.63,3.87,8.63,8.63h-2.97c0-3.12-2.54-5.67-5.67-5.67c-3.13,0-5.67,2.54-5.67,5.67
						l-0.03,0.31c-0.04,0.19-0.88,5.11,6.26,8.01c4.64,1.89,10.81,5.26,10.81,12.8C841.8,134.57,836.59,139.79,830.18,139.79z"/>
				</g>
			</g>
			<circle class="st0" cx="678.03" cy="90.19" r="2.88"/>
			<g>
				<path class="st0" d="M779.48,164.23l-50.58,135.3h7.74l22.82-61.03h46.3l22.35,61.01l7.73,0.02l-49.56-135.28L779.48,164.23z
					 M762.16,231.25l20.67-55.3l20.26,55.3H762.16z"/>
				<polygon class="st0" points="934.99,170.08 934.99,162.83 874.34,162.83 874.34,162.74 867.09,162.74 867.09,298.26 
					874.34,298.26 874.34,298.16 934.99,298.16 934.99,290.91 874.34,290.91 874.34,234.12 934.99,234.12 934.99,226.87 
					874.34,226.87 874.34,170.08 				"/>
				<path class="st0" d="M660.92,163.21H637.1v-0.47h-7.25v135.52h7.25v-46.63h23.82c24.38,0,44.21-19.83,44.21-44.21
					C705.14,183.04,685.3,163.21,660.92,163.21z M660.92,244.39H637.1v-73.93h23.82c20.38,0,36.96,16.58,36.96,36.96
					C697.89,227.8,681.3,244.39,660.92,244.39z"/>
			</g>
		</g>
	</g>
</g>
</svg>
