<?xml version="1.0" encoding="utf-8"?>
<svg xmlns="http://www.w3.org/2000/svg" viewBox="140 55 230 230">
  <circle class="st0" cx="330.333" cy="246.85" r="178.05" style="fill: none; stroke: rgb(0, 164, 207); stroke-miterlimit: 10; stroke-width: 8;" transform="matrix(0.583533, 0, 0, 0.601508, 63.420845, 27.416264)"/>
  <g transform="matrix(0.583533, 0, 0, 0.601508, -368.771057, -113.240509)" style="">
    <path class="st1" d="M1180.71,546.87c1.54,2.9,3.14,5.4,4.23,8.1c1.83,4.53,0.2,7.53-4.53,8.75c-1.67,0.43-3.41,0.62-5.13,0.81 c-2.3,0.25-3.79,1.15-3.98,3.72c-0.13,1.82-0.51,3.63-0.92,5.42c-1.14,4.94-3.55,5.76-7.59,2.61c-2.49-1.94-4.89-4.01-7.45-5.86 c-2.23-1.6-4.58-3.04-6.95-4.42c-4.82-2.82-9.97-3.57-15.31-1.82c-8.75,2.87-17.23,2.03-25.7-1.2c-6.18-2.35-12.58-4.13-18.7-6.63 c-3.44-1.41-6.69-3.49-9.67-5.74c-5.94-4.48-12.37-7.56-19.58-9.61c-10.23-2.91-17.32-10.41-23.41-18.69 c-1.31-1.78-1.56-4.91-1.2-7.26c1.7-11.14-1.04-20.69-8.92-28.86c-2.45-2.55-4.74-5.44-6.37-8.56c-4.14-7.91-10.66-13-18.48-16.69 c-3.26-1.53-5.39-3.29-5.58-7.42c-0.11-2.37-1.85-4.99-3.53-6.9c-3.37-3.8-6.96-7.48-10.91-10.66 c-4.77-3.83-8.06-8.51-10.44-14.04c-2.05-4.76-4.25-9.47-6.7-14.04c-1.76-3.29-4.39-5.87-8.18-6.93c-3.27-0.92-4.8,0.14-4.38,3.52 c0.23,1.84,1.1,3.71,2.07,5.33c3.97,6.63,7.95,13.27,12.22,19.71c2.29,3.46,4.89,6.83,7.89,9.68c4.64,4.41,7.87,9.56,10.07,15.46 c0.71,1.91,1.44,3.81,2.09,5.74c2.13,6.3,5.28,11.86,10.96,15.72c1.49,1.01,2.76,2.43,3.91,3.84c3.31,4.07,2.73,7.7-1.62,10.96 c-4.56,3.43-8.03,2.87-11.23-1.39c-3.47-4.62-6.95-9.28-10.93-13.45c-3.95-4.14-5.18-9.1-5.95-14.39 c-1.21-8.4-2.24-9.38-10.42-11.59c-3.49-0.94-7.09-2.1-10.12-3.99c-4.57-2.85-4.81-6.1-1.58-10.34c1.93-2.54,1.97-5.72-0.97-7.85 c-7.78-5.62-11.62-13.59-14.85-22.2c-1.07-2.84-3.29-5.28-5.12-7.8c-1.43-1.97-3.29-3.65-4.6-5.69c-2.2-3.44-1.32-5.75,2.57-7 c6.95-2.23,14.19-2.8,21.13-0.84c9.27,2.62,18.5,5.66,27.33,9.46c10.18,4.39,20.37,5.37,31.04,3.03c0.49-0.11,0.95-0.34,1.41-0.55 c11.52-5.27,26.03-1.27,33.59,9.02c1.96,2.67,4.6,4.83,6.87,7.28c2.48,2.67,4.9,5.39,7.53,8.31c0.89-0.77,2-1.4,2.65-2.36 c3.59-5.3,8.58-5.4,14.13-4.21c7.7,1.64,13.16,5.79,16.75,12.91c2.32,4.6,5.37,8.88,8.41,13.07c4.36,6.01,9.75,10.66,17.6,11.44 c0.99,0.1,1.97,0.52,2.9,0.94c3.25,1.44,3.46,2.68,2.13,5.94c-1.29,3.17-2.53,6.52-2.91,9.89c-1.3,11.45-2.08,22.99,0.11,34.41 c0.56,2.94,2.39,5.73,4.02,8.35c2.19,3.52,4.97,6.69,7.11,10.24c2.11,3.5,4.96,5.72,8.7,7.27c3.72,1.55,7.17,3.73,10.81,5.48 c1.31,0.63,2.92,1.3,4.25,1.09c5.32-0.86,10.59-2.03,15.88-3.13c4.11-0.86,7.48-3.08,9.45-6.69c2.17-3.97,4.2-8.14,5.44-12.47 c1.86-6.48,5.91-10.25,14.07-10.9c6.49-0.52,13.03-0.56,19.54-0.53c4.34,0.02,5.56,2.46,2.84,5.91 c-4.29,5.46-6.34,11.55-6.25,18.42c0.08,6.17-3.01,10.45-8.15,13.35c-6.29,3.55-12.51,7.38-20.2,6.95 C1182.94,546.28,1181.93,546.65,1180.71,546.87z M1165.8,571.3c1.63-9.89,1.63-9.89,12.17-12.06c0.1-0.02,0.2-0.05,0.3-0.06 c2.56-0.19,2.86-1.54,1.72-3.49c-1.34-2.28-2.8-4.49-4.16-6.75c-1.74-2.9-1.06-5.15,2.08-6.28c1.8-0.65,3.78-1.24,5.65-1.16 c7.43,0.33,13.21-3.63,19.2-7.03c2.59-1.47,4.24-3.73,4.4-6.91c0.13-2.54,0.12-5.15,0.74-7.59c1.15-4.44,2.72-8.76,4.05-12.91 c-4.88,0-10.28-0.3-15.63,0.08c-6,0.43-8.09,2.58-9.57,8.37c-0.35,1.38-0.68,2.79-1.26,4.08c-3.38,7.57-7.25,14.84-16.09,17.16 c-5.7,1.5-11.51,2.72-17.35,3.5c-2.32,0.31-4.99-0.56-7.24-1.51c-3.71-1.58-7.09-3.93-10.81-5.46c-4.33-1.78-7.65-4.45-10.19-8.37 c-2.48-3.83-5.13-7.56-7.92-11.17c-2.37-3.06-3.97-6.32-4.42-10.21c-1.84-15.58-2.22-31.07,2.62-46.54 c-1.68-0.47-3.43-0.71-4.95-1.43c-3.45-1.63-7.53-2.79-10.02-5.41c-4.94-5.2-9.06-11.18-13.33-16.98 c-1.87-2.53-3.08-5.54-4.96-8.05c-3.29-4.39-8.2-5.63-13.37-6.42c-3.8-0.58-5.42,2.06-7.5,4.25c-4,4.22-7.56,3.87-11.16-0.7 c-2.19-2.77-4.77-5.23-7.18-7.83c-1.45-1.56-3.28-2.9-4.29-4.7c-3.52-6.26-9.24-8.89-15.83-10.32c-4.46-0.97-8.83-1.66-12.86,1.46 c-0.75,0.58-1.88,0.75-2.87,0.95c-11.37,2.26-22.38,1.75-33.1-3.38c-9.36-4.48-19-8.46-29.45-9.75 c-5.23-0.64-10.42-0.62-15.81,1.39c1.15,1.38,1.9,2.65,2.98,3.51c4.85,3.89,7.41,9.19,9.06,14.91c1.66,5.75,4.79,10.23,9.56,13.75 c1.29,0.95,2.41,2.21,3.35,3.52c3.68,5.12,3.52,8.87-0.43,13.8c-0.17,0.22-0.23,0.52-0.57,1.34c1.66,1.02,3.23,2.3,5.03,3.01 c2.25,0.9,4.69,1.34,7.05,1.97c8.46,2.27,11.56,5.79,12.15,14.54c0.38,5.59,2.62,10.02,6.48,14.04c3.35,3.49,6.02,7.61,9.07,11.39 c0.71,0.88,1.9,2.27,2.56,2.11c1.36-0.33,2.89-1.31,3.6-2.47c0.38-0.64-0.58-2.36-1.29-3.32c-0.83-1.12-1.97-2.09-3.14-2.88 c-5.57-3.77-8.87-9.13-11.01-15.35c-0.96-2.79-1.75-5.7-3.16-8.26c-2.3-4.15-4.43-8.68-7.74-11.93 c-5.56-5.46-9.72-11.69-13.44-18.41c-2.01-3.64-4.61-6.96-6.72-10.55c-1.59-2.7-3.16-5.48-4.14-8.43 c-1.18-3.55-0.13-6.97,2.65-9.48c2.53-2.29,5.61-1.47,8.39-0.44c4.97,1.83,8.78,5.2,11.17,9.92c1.97,3.9,3.71,7.93,5.34,11.98 c2.17,5.41,5.4,9.98,9.84,13.78c3.33,2.85,6.59,5.79,9.71,8.85c3.24,3.18,5.89,6.86,6.55,11.48c0.34,2.33,1.49,3.56,3.48,4.42 c8.85,3.81,15.28,10.22,20.17,18.44c1.86,3.12,4.3,5.91,6.63,8.72c7.24,8.78,11.16,18.48,9.15,30.13 c-0.35,2.02-0.08,4.81,1.09,6.33c5.63,7.32,11.9,14.11,21.4,16.31c6.71,1.56,12.48,4.73,18.02,8.67c3.46,2.46,7.09,4.88,10.98,6.5 c6.56,2.74,13.39,4.83,20.1,7.21c6.34,2.25,12.76,2.65,19.18,0.49c6.01-2.02,11.95-1.94,17.5,1.03 C1154.08,563.97,1159.85,567.74,1165.8,571.3z" style="fill: none; stroke: rgb(0, 164, 207); stroke-miterlimit: 10; stroke-width: 2.5px;"/>
  </g>
</svg>